# xmcd
#
# Track frame offsets:
#	150
#	10051
#	29306
#	40083
#	51235
#	65063
#	75945
#	89855
#	104280
#	115753
#	128906
#	144502
#	157018
#	175442
#	190716
#	202536
#	211829
#	222573
#	236564
#	253248
#	262834
#	272908
#	286627
#	297411
#	309176
#
# Disc length: 4270 seconds
#
# Revision: 0
# Processed by: cddbd v1.5.2PL0 Copyright (c) Steve Scherf et al.
# Submitted via: EasyCDDAExtractor 16.0.6.1
#
DISCID=6810ac19
DTITLE=Συλλογικός δίσκος - Στις μπουάτ του '60 2
DYEAR=2012
DGENRE=Νέο κύμα
TTITLE0=Χωματά Καίτη - Μιά αγάπη για το καλοκαίρι [Γιάννης Σπανός-Γιώργος Παπα
TTITLE0=στεφάνου]
TTITLE1=Αστεριάδη Πόπη - Σκληρό μου αγόρι [Νίκος Μαμαγκάκης-Ντίνος Δημόπουλος]
TTITLE2=Ζωγράφος Γιώργος - Ποιος είδε την αγάπη μου [Νότης Μαυρουδής-Γιάννης Κ
TTITLE2=ακουλίδης]
TTITLE3=Βιολάρης Μιχάλης-Χωματά Καίτη - Μαυρομαλλούσα κοπελιά [Γιάννης Σπανός-
TTITLE3=Κώστας Κωτούλας]
TTITLE4=Κουμιώτη Ρένα - Κόρη του γιαλού [Λίνος Κόκοτος-Αργύρης Βεργόπουλος]
TTITLE5=Πουλόπουλος Γιάννης - Ήταν το ποτάμι μακρύ [Γιάννης Πουλόπουλος]
TTITLE6=Μαβίλη Αλέκα - Έναν αητό αγάπησα [Γιάννης Σπανός-Αλέκος Σακελλάριος]
TTITLE7=Βιολάρης Μιχάλης - Τρεις νέοι [Γιάννης Σπανός-Αιμιλία Δάφνη]
TTITLE8=Αστεριάδη Πόπη - Στου Φιλοπάππου [Κώστας Ξενάκης-Βασίλης Φωτεινάκης]
TTITLE9=Αρλέτα - Το πέτρινο χαμόγελο [Νίκος Χουλιαράς]
TTITLE10=Χωματά Καίτη - Μιά φυσαρμόνικα [Γιάννης Σπανός-Κώστας Γεωργουσόπουλος
TTITLE10=]
TTITLE11=Αργύρης Γιάννης - Πήρα αγκαλιά ένα όνειρο [Λάκης Παππάς-Γιάννης Αργύρ
TTITLE11=ης]
TTITLE12=Κωχ Μαρίζα - Κάτω στον Δαφνοπόταμο [Νίκος Χουλιαράς]
TTITLE13=Γκαϊφύλλιας Θανάσης-χορωδία - Ντιρλαντά [Παντελής Γκίνης]
TTITLE14=Αστεριάδη Πόπη - Μικρέ μου άνεμε [Γιάννης Γκούμας-Δημήτρης Χριστοδούλ
TTITLE14=ου]
TTITLE15=Βιολάρης Μιχάλης - Σ' αυτή τη γειτονιά [Μίκης Θεοδωράκης-Μάνος Ελευθε
TTITLE15=ρίου]
TTITLE16=Γεωργίου Αλέξης-Χωματά Καίτη - Δυό φιλιά [Βασίλης Δημητρίου-Κώστας Κι
TTITLE16=λιμάντζος]
TTITLE17=Γεωργίου Αλέξης - Σαν ένα αστέρι [Σταύρος Κουγιουμτζής-Γιώργος Θέμελη
TTITLE17=ς]
TTITLE18=Ντίκος Βαγγέλης - Δακρυσμένα μάτια [Μίκης Θεοδωράκης-Γιάννης Θεοδωράκ
TTITLE18=ης]
TTITLE19=Γκαϊφύλλιας Θανάσης - Τα γεροντάκια [Λίνος Κόκοτος-Άκος Δασκαλόπουλος
TTITLE19=]
TTITLE20=Μπιρμπίλη Σούλα - Πρωτομαγιά [Μάνος Λοΐζος-Μάρω Λήμνου]
TTITLE21=Δουράκη Μαρία - Το παιδί μας το καλοκαιράκι [Γιώργος Κοτσώνης-Παύλος 
TTITLE21=Μάτεσις]
TTITLE22=Γεωργίου Αλέξης - Πήρε λάθος μονοπάτι [Γιάννης Σπανός-Κώστας Κωτούλας
TTITLE22=]
TTITLE23=Ζωγράφος Γιώργος - Ο δρόμος [Μάνος Λοΐζος-Κωστούλα Μητροπούλου]
TTITLE24=Αρλέτα - Παράκληση [Γιώργος Ρωμανός-Ση Τσινγκ, απ. Όμηρος Μπεκές]
EXTD=
EXTT0=
EXTT1=
EXTT2=
EXTT3=
EXTT4=
EXTT5=
EXTT6=
EXTT7=
EXTT8=
EXTT9=
EXTT10=
EXTT11=
EXTT12=
EXTT13=
EXTT14=
EXTT15=
EXTT16=
EXTT17=
EXTT18=
EXTT19=
EXTT20=
EXTT21=
EXTT22=
EXTT23=
EXTT24=
PLAYORDER=
